<svg width="32" height="32" viewBox="0 0 32 32" fill="none" xmlns="http://www.w3.org/2000/svg">
<g id="user-circle-single--circle-geometric-human-person-single-user" clip-path="url(#clip0_216_940)">
<g id="user-circle-single--circle-geometric-human-person-single-user_2">
<path id="Vector" d="M15.9999 18.2857C19.1558 18.2857 21.7142 15.7273 21.7142 12.5714C21.7142 9.41551 19.1558 6.85713 15.9999 6.85713C12.844 6.85713 10.2856 9.41551 10.2856 12.5714C10.2856 15.7273 12.844 18.2857 15.9999 18.2857Z" stroke="black" stroke-linecap="round" stroke-linejoin="round"/>
<path id="Vector_2" d="M6.23987 27.2C7.25985 25.5257 8.69338 24.1419 10.4026 23.1819C12.1119 22.2217 14.0394 21.7173 15.9999 21.7173C17.9603 21.7173 19.8878 22.2217 21.5971 23.1819C23.3064 24.1419 24.7398 25.5257 25.7599 27.2" stroke="black" stroke-linecap="round" stroke-linejoin="round"/>
<path id="Vector_3" d="M16 30.8571C24.2054 30.8571 30.8571 24.2055 30.8571 16C30.8571 7.79462 24.2054 1.14285 16 1.14285C7.79459 1.14285 1.14282 7.79462 1.14282 16C1.14282 24.2055 7.79459 30.8571 16 30.8571Z" stroke="black" stroke-linecap="round" stroke-linejoin="round"/>
</g>
</g>
<defs>
<clipPath id="clip0_216_940">
<rect width="32" height="32" fill="white"/>
</clipPath>
</defs>
</svg>
