<svg width="34" height="32" viewBox="0 0 34 32" fill="none" xmlns="http://www.w3.org/2000/svg">
<g id="icon_camera">
<path id="Vector" d="M16.9999 23.3333C18.7708 23.3333 20.276 22.75 21.5155 21.5833C22.7551 20.4167 23.3749 19 23.3749 17.3333C23.3749 15.6667 22.7551 14.25 21.5155 13.0833C20.276 11.9167 18.7708 11.3333 16.9999 11.3333C15.2291 11.3333 13.7239 11.9167 12.4843 13.0833C11.2447 14.25 10.6249 15.6667 10.6249 17.3333C10.6249 19 11.2447 20.4167 12.4843 21.5833C13.7239 22.75 15.2291 23.3333 16.9999 23.3333ZM16.9999 20.6667C16.0083 20.6667 15.1701 20.3444 14.4853 19.7C13.8006 19.0556 13.4583 18.2667 13.4583 17.3333C13.4583 16.4 13.8006 15.6111 14.4853 14.9667C15.1701 14.3222 16.0083 14 16.9999 14C17.9916 14 18.8298 14.3222 19.5145 14.9667C20.1992 15.6111 20.5416 16.4 20.5416 17.3333C20.5416 18.2667 20.1992 19.0556 19.5145 19.7C18.8298 20.3444 17.9916 20.6667 16.9999 20.6667ZM5.66659 28C4.88742 28 4.2204 27.7389 3.66554 27.2167C3.11068 26.6944 2.83325 26.0667 2.83325 25.3333V9.33333C2.83325 8.6 3.11068 7.97222 3.66554 7.45C4.2204 6.92778 4.88742 6.66667 5.66659 6.66667H10.1291L12.7499 4H21.2499L23.8708 6.66667H28.3333C29.1124 6.66667 29.7794 6.92778 30.3343 7.45C30.8892 7.97222 31.1666 8.6 31.1666 9.33333V25.3333C31.1666 26.0667 30.8892 26.6944 30.3343 27.2167C29.7794 27.7389 29.1124 28 28.3333 28H5.66659ZM5.66659 25.3333H28.3333V9.33333H22.5958L20.0103 6.66667H13.9895L11.4041 9.33333H5.66659V25.3333Z" fill="black"/>
</g>
</svg>
