<svg width="32" height="32" viewBox="0 0 32 32" fill="none" xmlns="http://www.w3.org/2000/svg">
<g id="Frame">
<path id="Vector" d="M9.3335 24C7.11127 24 5.22239 23.2222 3.66683 21.6667C2.11127 20.1111 1.3335 18.2222 1.3335 16C1.3335 13.7778 2.11127 11.8889 3.66683 10.3333C5.22239 8.77778 7.11127 8 9.3335 8H22.6668C24.8891 8 26.7779 8.77778 28.3335 10.3333C29.8891 11.8889 30.6668 13.7778 30.6668 16C30.6668 18.2222 29.8891 20.1111 28.3335 21.6667C26.7779 23.2222 24.8891 24 22.6668 24H9.3335ZM9.3335 21.3333H22.6668C24.1335 21.3333 25.3891 20.8111 26.4335 19.7667C27.4779 18.7222 28.0002 17.4667 28.0002 16C28.0002 14.5333 27.4779 13.2778 26.4335 12.2333C25.3891 11.1889 24.1335 10.6667 22.6668 10.6667H9.3335C7.86683 10.6667 6.61127 11.1889 5.56683 12.2333C4.52239 13.2778 4.00016 14.5333 4.00016 16C4.00016 17.4667 4.52239 18.7222 5.56683 19.7667C6.61127 20.8111 7.86683 21.3333 9.3335 21.3333ZM22.6668 20C23.7779 20 24.7224 19.6111 25.5002 18.8333C26.2779 18.0556 26.6668 17.1111 26.6668 16C26.6668 14.8889 26.2779 13.9444 25.5002 13.1667C24.7224 12.3889 23.7779 12 22.6668 12C21.5557 12 20.6113 12.3889 19.8335 13.1667C19.0557 13.9444 18.6668 14.8889 18.6668 16C18.6668 17.1111 19.0557 18.0556 19.8335 18.8333C20.6113 19.6111 21.5557 20 22.6668 20Z" fill="black"/>
</g>
</svg>
