<svg width="32" height="32" viewBox="0 0 32 32" fill="none" xmlns="http://www.w3.org/2000/svg">
<g id="shopping-bag-hand-bag-2--shopping-bag-purse-goods-item-products">
<g id="shopping-bag-hand-bag-2--shopping-bag-purse-goods-item-products_2">
<path id="Vector" d="M29.44 28.32C29.4761 28.6407 29.4437 28.9652 29.3452 29.2727C29.2466 29.5799 29.0844 29.8628 28.8686 30.1028C28.6524 30.3424 28.3877 30.5337 28.0924 30.6635C27.7968 30.7936 27.477 30.8596 27.1543 30.8571H4.84576C4.52295 30.8596 4.20329 30.7936 3.90781 30.6635C3.61234 30.5337 3.34775 30.3424 3.13147 30.1028C2.91577 29.8628 2.75335 29.5799 2.65485 29.2727C2.55636 28.9652 2.52404 28.6407 2.56004 28.32L4.57147 10.2857H27.4286L29.44 28.32Z" stroke="black" stroke-linecap="round" stroke-linejoin="round"/>
<path id="Vector_2" d="M10.2858 10.2857V6.85714C10.2858 5.34162 10.8878 3.88816 11.9594 2.81652C13.0311 1.74489 14.4845 1.14285 16.0001 1.14285C17.5156 1.14285 18.969 1.74489 20.0407 2.81652C21.1123 3.88816 21.7143 5.34162 21.7143 6.85714V10.2857" stroke="black" stroke-linecap="round" stroke-linejoin="round"/>
</g>
</g>
</svg>
