<svg width="40" height="40" viewBox="0 0 40 40" fill="none" xmlns="http://www.w3.org/2000/svg">
<g id="Frame">
<path id="Vector" d="M11.6667 30C8.88897 30 6.52786 29.0278 4.58341 27.0833C2.63897 25.1389 1.66675 22.7778 1.66675 20C1.66675 17.2222 2.63897 14.8611 4.58341 12.9167C6.52786 10.9722 8.88897 10 11.6667 10H28.3334C31.1112 10 33.4723 10.9722 35.4167 12.9167C37.3612 14.8611 38.3334 17.2222 38.3334 20C38.3334 22.7778 37.3612 25.1389 35.4167 27.0833C33.4723 29.0278 31.1112 30 28.3334 30H11.6667ZM11.6667 26.6667H28.3334C30.1667 26.6667 31.7362 26.0139 33.0417 24.7083C34.3473 23.4028 35.0001 21.8333 35.0001 20C35.0001 18.1667 34.3473 16.5972 33.0417 15.2917C31.7362 13.9861 30.1667 13.3333 28.3334 13.3333H11.6667C9.83342 13.3333 8.26397 13.9861 6.95842 15.2917C5.65286 16.5972 5.00008 18.1667 5.00008 20C5.00008 21.8333 5.65286 23.4028 6.95842 24.7083C8.26397 26.0139 9.83342 26.6667 11.6667 26.6667ZM28.3334 25C29.7223 25 30.9029 24.5139 31.8751 23.5417C32.8473 22.5694 33.3334 21.3889 33.3334 20C33.3334 18.6111 32.8473 17.4306 31.8751 16.4583C30.9029 15.4861 29.7223 15 28.3334 15C26.9445 15 25.764 15.4861 24.7917 16.4583C23.8195 17.4306 23.3334 18.6111 23.3334 20C23.3334 21.3889 23.8195 22.5694 24.7917 23.5417C25.764 24.5139 26.9445 25 28.3334 25Z" fill="#FF7E29"/>
</g>
</svg>
